# AST/ASF file generated using VICON BodyLanguage
# -----------------------------------------------
:version 1.10
:name VICON
:units
  mass 1.0
  length 0.45
  angle deg
:documentation
   .ast/.asf automatically generated from VICON data using
   VICON BodyBuilder and BodyLanguage model FoxedUp or BRILLIANT.MOD
:root
   order TX TY TZ RX RY RZ
   axis XYZ
   position 0 0 0  
   orientation 0 0 0 
:bonedata
  begin
     id 1 
     name lhipjoint
     direction 0.645893 -0.654526 0.392961 
     length 2.38111 
     axis 0 0 0  XYZ
  end
  begin
     id 2 
     name lfemur
     direction 0.34202 -0.939693 0  
     length 6.6822  
     axis 0 0 20  XYZ
    dof rx ry rz
    limits (-160.0 20.0)
           (-70.0 70.0)
           (-60.0 70.0)
  end
  begin
     id 3 
     name ltibia
     direction 0.34202 -0.939693 0   
     length 6.93904   
     axis 0 0 20   XYZ
    dof rx
    limits (-10.0 170.0)
  end
  begin
     id 4 
     name lfoot
     direction 0.0694967 -0.190941 0.979138   
     length 2.13616   
     axis -90 7.62852e-016 20   XYZ
    dof rx rz
    limits (-45.0 90.0)
           (-70.0 20.0)
  end
  begin
     id 5 
     name ltoes
     direction 1.535e-011 -4.2202e-011 1   
     length 1.07536   
     axis -90 7.62852e-016 20   XYZ
    dof rx
    limits (-90.0 20.0)
  end
  begin
     id 6 
     name rhipjoint
     direction -0.700219 -0.612087 0.367481   
     length 2.54621  
     axis 0 0 0  XYZ 
  end
  begin
     id 7 
     name rfemur
     direction -0.34202 -0.939693 0   
     length 6.55353   
     axis 0 0 -20   XYZ
    dof rx ry rz
    limits (-160.0 20.0)
           (-70.0 70.0)
           (-70.0 60.0)
  end
  begin
     id 8 
     name rtibia
     direction -0.34202 -0.939693 0   
     length 6.8736   
     axis 0 0 -20   XYZ
    dof rx
    limits (-10.0 170.0)
 end
 begin
     id 9 
     name rfoot
     direction -0.0679995 -0.186827 0.980037   
     length 2.1218  
     axis -90 -7.62852e-016 -20   XYZ
    dof rx rz
    limits (-45.0 90.0)
           (-20.0 70.0)
  end
  begin
     id 10 
     name rtoes
     direction -1.53589e-011 -4.21772e-011 1   
     length 1.06864   
     axis -90 -7.62852e-016 -20   XYZ
    dof rx
    limits (-90.0 20.0)
  end
  begin
     id 11 
     name lowerback
     direction -0.0416607 0.996347 -0.0745409   
     length 2.12205   
     axis 0 0 0   XYZ
    dof rx ry rz
    limits (-20.0 45.0)
           (-30.0 30.0)
           (-30.0 30.0)
  end
  begin
     id 12 
     name upperback
     direction -0.000153993 0.999276 -0.0380568   
     length 2.12759   
     axis 0 0 0   XYZ
    dof rx ry rz
    limits (-20.0 45.0)
           (-30.0 30.0)
           (-30.0 30.0)
  end
  begin
     id 13 
     name thorax
     direction 0.0187671 0.999821 -0.00241421   
     length 2.13704   
     axis 0 0 0   XYZ
    dof rx ry rz
    limits (-20.0 45.0)
           (-30.0 30.0)
           (-30.0 30.0)
  end
  begin
     id 14 
     name lowerneck
     direction 0.0268157 0.964865 0.261374   
     length 1.65253   
     axis 0 0 0   XYZ
    dof rx ry rz
    limits (-20.0 45.0)
           (-30.0 30.0)
           (-30.0 30.0)
  end
  begin
     id 15 
     name upperneck
     direction 0.00263774 0.939908 -0.341418   
     length 1.72375   
     axis 0 0 0   XYZ
    dof rx ry rz
    limits (-20.0 45.0)
           (-30.0 30.0)
           (-30.0 30.0)
  end
  begin
     id 16
     name head
     direction -0.00526001 0.989001 -0.147818  
     length 1.74878  
     axis 0 0 0   XYZ
    dof rx ry rz
    limits (-20.0 45.0)
           (-30.0 30.0)
           (-30.0 30.0)
  end
  begin
     id 17 
     name lclavicle
     direction 0.881214 0.461162 -0.103884  
     length 3.25108  
     axis 0 0 0   XYZ
    dof ry rz
    limits (-20.0 10.0)
           (0.0 20.0)
  end
  begin
     id 18 
     name lhumerus
     direction 1 -4.4899e-011 3.38092e-027   
     length 4.87408   
     axis 180 -30 -90   XYZ
    dof rx ry rz
    limits (-60.0 90.0)
           (-90.0 90.0)
           (-90.0 90.0)
  end
  begin
     id 19
     name lradius
     direction 1 -4.48931e-011 9.96288e-027   
     length 2.76729   
     axis 180 -30 -90   XYZ
    dof rx
    limits (-10.0 170.0)
  end
  begin
     id 20
     name lwrist
     direction 1 -4.4896e-011 1.50617e-026   
     length 1.38364   
     axis -9.31234e-015 90 90   XYZ
    dof ry
    limits (-180.0 0.0)
 end
  begin
     id 21 
     name lhand
     direction 1 -4.49038e-011 3.01286e-026   
     length 0.98922   
     axis -1.92217e-014 90 90   XYZ
    dof rx rz
    limits (-90.0 90.0)
           (-45.0 45.0)
  end
  begin
     id 22 
     name lfingers
     direction 1 -4.49051e-011 6.02588e-026   
     length 0.797535   
     axis -3.84436e-014 90 90   XYZ
    dof rx
    limits (0.0 90.0)
  end
  begin
     id 23
     name lthumb
     direction 0.707107 -6.34901e-011 0.707107   
     length 1.14511   
     axis -90 45 2.19363e-014   XYZ
    dof rx rz
    limits (-45.0 45.0)
           (-45.0 45.0)
  end
  begin
     id 24 
     name rclavicle
     direction -0.893894 0.441652 -0.0767889   
     length 3.29361  
     axis 0 0 0   XYZ 
    dof ry rz
    limits (-10.0 20.0)
           (-20.0 0.0)
  end
  begin
     id 25 
     name rhumerus
     direction -1 -4.48945e-011 8.0491e-028  
     length 4.71404   
     axis 180 30 90   XYZ
    dof rx ry rz
    limits (-90.0 60.0)
           (-90.0 90.0)
           (-90.0 90.0)
  end
  begin
     id 26 
     name rradius
     direction -1 -4.48986e-011 9.27795e-027   
     length 2.83468   
     axis 180 30 90   XYZ
    dof rx
    limits (-10.0 170.0)
  end
  begin
     id 27 
     name rwrist
     direction -1 -4.49029e-011 1.5064e-026   
     length 1.41734   
     axis -9.31234e-015 -90 -90   XYZ
    dof ry
    limits (-180.0 0.0)
  end
  begin
     id 28
     name rhand
     direction -1 -4.48857e-011 3.01165e-026   
     length 0.868195   
     axis -1.92217e-014 -90 -90   XYZ
    dof rx rz
    limits (-90.0 90.0)
           (-45.0 45.0)
  end
  begin
     id 29
     name rfingers
     direction -1 -4.49048e-011 6.02585e-026   
     length 0.699961   
     axis -3.84436e-014 -90 -90   XYZ
    dof rx
    limits (0.0 90.0)
  end
  begin
     id 30
     name rthumb
     direction -0.707107 -6.34854e-011 0.707107   
     length 1.00501   
     axis -90 -45 -2.19363e-014   XYZ
    dof rx rz
    limits (-45.0 45.0)
           (-45.0 45.0)
  end
:hierarchy
  begin
    root lhipjoint rhipjoint lowerback
    lhipjoint lfemur
    lfemur ltibia
    ltibia lfoot
    lfoot ltoes
    rhipjoint rfemur
    rfemur rtibia
    rtibia rfoot
    rfoot rtoes
    lowerback upperback
    upperback thorax
    thorax lowerneck lclavicle rclavicle
    lowerneck upperneck
    upperneck head
    lclavicle lhumerus
    lhumerus lradius
    lradius lwrist
    lwrist lhand lthumb
    lhand lfingers
    rclavicle rhumerus
    rhumerus rradius
    rradius rwrist
    rwrist rhand rthumb
    rhand rfingers
  end

#!OML:ASF H:\ManfredObstacles\Project 1\Capture day 2\Session 1\male.ASF
:FULLY-SPECIFIED
:DEGREES
191
root 1.68668 7.58409 15.1591 -140.892 0.0759235 -179.681
lowerback 55.4062 -3.36971 -0.145996
upperback 7.40729 -0.874333 -6.44827
thorax -13.2423 1.38031 -7.16607
lowerneck -30.7125 2.70824 9.4896
upperneck 16.4392 -1.17945 2.09856
head 10.2194 0.277912 -0.944737
rclavicle 6.19338e-015 -2.58145e-014
rhumerus 50.7612 -2.50978 -68.117
rradius 63.8283
rwrist 32.1369
rhand -28.8881 -8.60708
rfingers 7.12502
rthumb -2.24363 -38.575
lclavicle 6.19338e-015 -2.58145e-014
lhumerus 40.4125 -4.27055 45.7734
lradius 70.3758
lwrist -31.0453
lhand -31.1703 20.1605
lfingers 7.12502
lthumb -4.44759 50.0938
rfemur -95.3917 -5.58287 30.8396
rtibia 151.905
rfoot -25.1915 -26.7731
rtoes -33.8477
lfemur -93.3075 12.6903 -27.5567
ltibia 152.73
lfoot -6.94579 29.2641
ltoes -6.98669
192
root 1.67802 7.56797 15.0121 -140.517 0.165718 -179.661
lowerback 55.379 -3.54543 0.0812081
upperback 7.2212 -1.08848 -6.6671
thorax -13.5054 1.25133 -7.42627
lowerneck -29.9194 2.73848 9.54088
upperneck 16.5066 -1.09245 2.22763
head 10.1222 0.333809 -0.895429
rclavicle 4.64659e-015 7.53565e-014
rhumerus 49.2668 -1.86668 -67.8663
rradius 65.2736
rwrist 31.8458
rhand -29.3279 -8.82185
rfingers 7.12502
rthumb -2.66834 -38.7849
lclavicle 4.64659e-015 7.53565e-014
lhumerus 38.8358 -4.82775 45.0792
lradius 71.7856
lwrist -30.8213
lhand -31.6031 20.6509
lfingers 7.12502
lthumb -4.8655 50.5751
rfemur -95.2255 -5.56837 30.9948
rtibia 152.099
rfoot -23.6994 -26.3663
rtoes -33.2732
lfemur -92.878 12.7746 -27.5423
ltibia 152.81
lfoot -6.18694 28.4706
ltoes -5.96462
193
root 1.66931 7.55103 14.8668 -140.162 0.241554 -179.641
lowerback 55.1314 -3.60934 0.227159
upperback 7.20368 -1.14445 -6.74228
thorax -13.5193 1.20318 -7.54478
lowerneck -29.1879 2.73697 9.58401
upperneck 16.451 -1.00868 2.22619
head 9.98586 0.367301 -0.892621
rclavicle -4.57205e-015 -8.58905e-014
rhumerus 47.9499 -1.32651 -67.3501
rradius 66.6088
rwrist 31.4779
rhand -29.7868 -9.01608
rfingers 7.12502
rthumb -3.11161 -38.9731
lclavicle -4.57205e-015 -8.58905e-014
lhumerus 37.462 -5.33862 44.6597
lradius 73.0747
lwrist -30.5988
lhand -32.0641 21.0903
lfingers 7.12502
lthumb -5.3106 51.0038
rfemur -95.07 -5.57761 31.1421
rtibia 152.295
rfoot -22.1802 -26.013
rtoes -32.2218
lfemur -92.4455 12.8478 -27.52
ltibia 152.875
lfoot -5.42979 27.6468
ltoes -5.06452
194
root 1.66062 7.534 14.7233 -139.83 0.308614 -179.622
lowerback 54.8897 -3.71098 0.376875
upperback 7.20099 -1.23927 -6.83131
thorax -13.5218 1.14172 -7.6621
lowerneck -28.6068 2.77265 9.65849
upperneck 16.4424 -0.907035 2.20339
head 9.89136 0.411054 -0.89901
rclavicle -3.37934e-015 -2.50593e-014
rhumerus 46.7179 -0.713312 -66.8739
rradius 67.8723
rwrist 31.0925
rhand -30.2368 -9.19493
rfingers 7.12502
rthumb -3.54609 -39.1452
lclavicle -3.37934e-015 -2.50593e-014
lhumerus 36.0844 -5.80526 44.255
lradius 74.2638
lwrist -30.3577
lhand -32.5681 21.4921
lfingers 7.12502
lthumb -5.79721 51.3928
rfemur -94.9275 -5.61449 31.2666
rtibia 152.49
rfoot -20.66 -25.7713
rtoes -30.73
lfemur -91.9933 12.9135 -27.493
ltibia 152.922
lfoot -4.66878 26.8286
ltoes -4.09949
195
root 1.65207 7.5174 14.5815 -139.519 0.368764 -179.604
lowerback 54.5699 -3.83194 0.518651
upperback 7.29931 -1.32715 -6.92507
thorax -13.3965 1.09645 -7.77798
lowerneck -28.2486 2.83038 9.75175
upperneck 16.4163 -0.80967 2.16489
head 9.82648 0.452511 -0.913613
rclavicle 1.76421e-014 4.74661e-014
rhumerus 45.6515 -0.122511 -66.4479
rradius 69.0804
rwrist 30.7434
rhand -30.6132 -9.34975
rfingers 7.12502
rthumb -3.90959 -39.2936
lclavicle 1.76421e-014 4.74661e-014
lhumerus 34.8559 -6.18224 43.9019
lradius 75.3206
lwrist -30.13
lhand -33.1166 21.8709
lfingers 7.12502
lthumb -6.32673 51.7564
rfemur -94.8007 -5.6838 31.3589
rtibia 152.676
rfoot -19.1372 -25.6268
rtoes -28.5688
lfemur -91.5096 12.9719 -27.4632
ltibia 152.945
lfoot -3.89583 26.0476
ltoes -3.14268
196
root 1.64364 7.50146 14.441 -139.225 0.408739 -179.591
lowerback 54.2443 -4.01583 0.698271
upperback 7.43994 -1.45808 -7.06247
thorax -13.2307 1.04002 -7.93972
lowerneck -28.1015 2.93335 9.90437
upperneck 16.4127 -0.704055 2.11264
head 9.80506 0.501564 -0.939937
rclavicle 1.56046e-014 3.86159e-014
rhumerus 44.7044 0.468144 -66.1305
rradius 70.2341
rwrist 30.4549
rhand -30.9227 -9.50647
rfingers 7.12502
rthumb -4.20851 -39.4446
lclavicle 1.56046e-014 3.86159e-014
lhumerus 33.6934 -6.50546 43.5692
lradius 76.2711
lwrist -29.9285
lhand -33.716 22.2336
lfingers 7.12502
lthumb -6.90538 52.101
rfemur -94.6901 -5.80317 31.4152
rtibia 152.839
rfoot -17.6131 -25.5597
rtoes -26.3955
lfemur -90.9946 13.0059 -27.4325
ltibia 152.945
lfoot -3.12157 25.3214
ltoes -2.13992
197
root 1.63574 7.48613 14.3021 -138.913 0.433125 -179.576
lowerback 53.7844 -4.13547 0.842425
upperback 7.66275 -1.50174 -7.11709
thorax -12.9351 1.02626 -8.02426
lowerneck -28.0891 3.00494 10.0065
upperneck 16.3853 -0.627452 2.03371
head 9.79536 0.531908 -0.971697
rclavicle -1.45113e-014 -5.17588e-014
rhumerus 43.8416 1.00547 -65.7678
rradius 71.3553
rwrist 30.2462
rhand -31.1815 -9.65036
rfingers 7.12502
rthumb -4.45843 -39.5834
lclavicle -1.45113e-014 -5.17588e-014
lhumerus 32.6654 -6.8024 43.4367
lradius 77.1006
lwrist -29.7698
lhand -34.3536 22.5769
lfingers 7.12502
lthumb -7.52085 52.4232
rfemur -94.6591 -5.95306 31.4544
rtibia 152.976
rfoot -16.0111 -25.3948
rtoes -23.9139
lfemur -90.5066 13.0233 -27.402
ltibia 152.925
lfoot -2.36246 24.6313
ltoes -1.26752
198
root 1.62831 7.47128 14.1644 -138.579 0.439844 -179.564
lowerback 53.3395 -4.41605 1.09764
upperback 7.84018 -1.72018 -7.32449
thorax -12.7332 0.9324 -8.25675
lowerneck -28.1271 3.15733 10.1719
upperneck 16.4112 -0.510634 2.05052
head 9.8173 0.595909 -0.972482
rclavicle 8.94531e-016 -1.47427e-014
rhumerus 42.9794 1.69369 -65.7447
rradius 72.4501
rwrist 30.1427
rhand -31.4246 -9.78725
rfingers 7.12502
rthumb -4.69312 -39.7153
lclavicle 8.94531e-016 -1.47427e-014
lhumerus 31.5117 -7.04991 43.1128
lradius 77.8824
lwrist -29.6241
lhand -34.9873 22.9128
lfingers 7.12502
lthumb -8.13251 52.7363
rfemur -94.7032 -6.14323 31.4659
rtibia 153.081
rfoot -14.3079 -25.135
rtoes -22.454
lfemur -90.0724 13.0068 -27.397
ltibia 152.886
lfoot -1.59557 23.9617
ltoes -0.481719
199
root 1.62177 7.45646 14.0281 -138.222 0.433943 -179.557
lowerback 52.8662 -4.66337 1.35994
upperback 7.99746 -1.90525 -7.49869
thorax -12.5451 0.846922 -8.4717
lowerneck -28.1395 3.2832 10.3072
upperneck 16.4023 -0.415543 2.08292
head 9.82166 0.648251 -0.966609
rclavicle 3.57812e-015 -2.0655e-016
rhumerus 42.0707 2.37305 -65.7334
rradius 73.5193
rwrist 30.0747
rhand -31.7157 -9.92014
rfingers 7.12502
rthumb -4.97423 -39.8418
lclavicle 3.57812e-015 -2.0655e-016
lhumerus 30.3731 -7.34267 42.8737
lradius 78.6075
lwrist -29.5234
lhand -35.5909 23.2357
lfingers 7.12502
lthumb -8.71502 53.0358
rfemur -94.8213 -6.36381 31.4571
rtibia 153.155
rfoot -12.4953 -24.7645
rtoes -21.1118
lfemur -89.6948 12.9611 -27.4194
ltibia 152.831
lfoot -0.828013 23.3066
ltoes 0.17206
200
root 1.61615 7.44173 13.8927 -137.855 0.421136 -179.552
lowerback 52.5052 -4.97674 1.69202
upperback 8.04134 -2.18116 -7.7486
thorax -12.5257 0.708954 -8.77267
lowerneck -28.1351 3.42563 10.4508
upperneck 16.4516 -0.326841 2.194
head 9.84572 0.708637 -0.935094
rclavicle -6.0033e-014 7.51655e-015
rhumerus 41.0499 3.14536 -65.9264
rradius 74.5759
rwrist 30.0478
rhand -32.063 -10.0471
rfingers 7.12502
rthumb -5.30951 -39.9606
lclavicle -6.0033e-014 7.51655e-015
lhumerus 29.1037 -7.70012 42.5201
lradius 79.3146
lwrist -29.4504
lhand -36.1487 23.5478
lfingers 7.12502
lthumb -9.25324 53.3248
rfemur -94.9941 -6.61125 31.4276
rtibia 153.198
rfoot -10.556 -24.2634
rtoes -20.3205
lfemur -89.3452 12.8944 -27.4658
ltibia 152.756
lfoot -0.0312448 22.6747
ltoes 0.788073
201
root 1.61161 7.42732 13.758 -137.499 0.405768 -179.562
lowerback 52.1469 -5.35102 1.90917
upperback 8.1175 -2.58293 -7.9452
thorax -12.4806 0.521276 -8.89661
lowerneck -28.2205 3.64087 10.3457
upperneck 16.4719 -0.0771203 2.3909
head 9.87925 0.835968 -0.80744
rclavicle -4.01545e-014 -4.10615e-015
rhumerus 40.3195 4.1975 -66.1551
rradius 75.5825
rwrist 30.0489
rhand -32.4501 -10.1822
rfingers 7.12502
rthumb -5.68334 -40.086
lclavicle -4.01545e-014 -4.10615e-015
lhumerus 27.6192 -7.74462 42.2184
lradius 80.001
lwrist -29.4505
lhand -36.6243 23.822
lfingers 7.12502
lthumb -9.71217 53.5781
rfemur -95.1857 -6.90392 31.3469
rtibia 153.207
rfoot -8.52992 -23.5894
rtoes -20.0959
lfemur -89.0005 12.8071 -27.5389
ltibia 152.653
lfoot 0.77199 22.0487
ltoes 1.34008
